<svg width="34" height="34" viewBox="0 0 34 34" fill="none" xmlns="http://www.w3.org/2000/svg">
<path d="M30.6296 1.00027H3.37037C2.75011 0.990778 2.15156 1.22851 1.70684 1.66099C1.26213 2.09347 1.0078 2.68514 1 3.30542V30.6887C1.00624 31.31 1.25987 31.9032 1.70476 32.3369C2.14965 32.7707 2.74909 33.0092 3.37037 32.9997H30.6296C31.916 33.0001 32.9678 31.9746 33 30.6887V3.30542C32.9647 2.02185 31.9137 0.999788 30.6296 1.00027Z" fill="white" stroke="white"/>
<path fill-rule="evenodd" clip-rule="evenodd" d="M11.1057 9.06679C11.1045 7.55692 9.78527 6.3335 8.15831 6.3335C6.52949 6.33675 5.21093 7.56305 5.21094 9.07465C5.21444 10.5845 6.53558 11.8062 8.16253 11.804C9.78949 11.8018 11.1068 10.5767 11.1057 9.06679ZM10.6991 29.0703V13.8849H5.61747V29.0703H10.6991Z" fill="#263044"/>
<path d="M13.6309 13.181H18.2911V15.3139H18.3578C19.308 13.6907 21.0759 12.7219 22.9574 12.7932C27.8786 12.7932 28.7888 16.0289 28.7888 20.2279V28.7896H23.9465V21.2034C23.9465 19.3857 23.9161 17.065 21.4222 17.065C18.9282 17.065 18.4853 19.0403 18.4853 21.0762V28.7896H13.6309V13.181Z" fill="#263044"/>
</svg>
